<svg width="25" height="25" viewBox="0 0 25 25" fill="none" xmlns="http://www.w3.org/2000/svg">
<mask id="mask0_85008_9" style="mask-type:alpha" maskUnits="userSpaceOnUse" x="0" y="0" width="25" height="25">
<rect x="0.666672" y="0.5" width="24" height="24" fill="#D9D9D9"/>
</mask>
<g mask="url(#mask0_85008_9)">
<path d="M3.00784 24.5151C2.36392 24.5151 1.81268 24.2858 1.35413 23.8273C0.895584 23.3687 0.666308 22.8175 0.666308 22.1736V5.78283C0.666308 5.13891 0.895584 4.58767 1.35413 4.12912C1.81268 3.67057 2.36392 3.4413 3.00784 3.4413H13.4569L11.1154 5.78283H3.00784V22.1736H19.3986V14.0367L21.7401 11.6952V22.1736C21.7401 22.8175 21.5108 23.3687 21.0523 23.8273C20.5937 24.2858 20.0425 24.5151 19.3986 24.5151H3.00784ZM16.0912 4.11449L17.7595 5.75356L10.0324 13.4806V15.149H11.6715L19.4279 7.39264L21.0962 9.03171L13.3399 16.788C13.1252 17.0027 12.8764 17.1734 12.5935 17.3003C12.3106 17.4271 12.013 17.4905 11.7008 17.4905H8.86168C8.52996 17.4905 8.2519 17.3783 8.02751 17.1539C7.80311 16.9295 7.69091 16.6515 7.69091 16.3197V13.4806C7.69091 13.1684 7.74945 12.8709 7.86653 12.5879C7.9836 12.305 8.14946 12.0562 8.3641 11.8416L16.0912 4.11449ZM21.0962 9.03171L16.0912 4.11449L19.0181 1.18757C19.4864 0.719261 20.0474 0.485107 20.7011 0.485107C21.3547 0.485107 21.906 0.719261 22.3548 1.18757L23.9938 2.85591C24.4426 3.30471 24.667 3.85106 24.667 4.49499C24.667 5.13891 24.4426 5.68527 23.9938 6.13406L21.0962 9.03171Z" fill="#CDCDCD"/>
</g>
</svg>
