<svg width="25" height="25" viewBox="0 0 25 25" fill="#CDCDCD" xmlns="http://www.w3.org/2000/svg">
    <path d="M18.7949 4.19232L18.7949 20.8077C18.7944 21.2972 18.5997 21.7665 18.2536 22.1126C17.9075 22.4587 17.4382 22.6534 16.9487 22.6539L13.2564 22.6539C12.7669 22.6534 12.2976 22.4587 11.9515 22.1126C11.6054 21.7665 11.4108 21.2972 11.4103 20.8077L11.4103 4.19232C11.4108 3.70284 11.6054 3.23354 11.9515 2.88743C12.2976 2.54131 12.7669 2.34665 13.2564 2.34616L16.9487 2.34616C17.4382 2.34665 17.9075 2.54131 18.2536 2.88743C18.5997 3.23354 18.7944 3.70284 18.7949 4.19232ZM13.2564 20.8077L16.9487 20.8077L16.9487 4.19232L13.2564 4.19232L13.2564 20.8077ZM13.2564 4.19232L13.2564 20.8077C13.2559 21.2972 13.0613 21.7665 12.7152 22.1126C12.369 22.4587 11.8997 22.6533 11.4103 22.6538L7.71796 22.6538C7.22848 22.6533 6.75919 22.4587 6.41307 22.1126C6.06696 21.7665 5.87229 21.2972 5.87181 20.8077L5.8718 4.1923C5.87229 3.70282 6.06696 3.23353 6.41307 2.88741C6.75919 2.5413 7.22848 2.34663 7.71796 2.34615L11.4103 2.34615C11.8997 2.34663 12.369 2.5413 12.7152 2.88741C13.0613 3.23353 13.2559 3.70284 13.2564 4.19232ZM7.71796 20.8077L11.4103 20.8077L11.4103 4.19232L7.71796 4.1923L7.71796 20.8077ZM7.71796 4.1923L7.71796 20.8077C7.71747 21.2972 7.52281 21.7665 7.17669 22.1126C6.83058 22.4587 6.36129 22.6533 5.87181 22.6538L2.1795 22.6538C1.69002 22.6533 1.22072 22.4587 0.874609 22.1126C0.528494 21.7665 0.333832 21.2972 0.333343 20.8077L0.333343 4.1923C0.333831 3.70282 0.528493 3.23353 0.874608 2.88741C1.22072 2.5413 1.69002 2.34663 2.1795 2.34615L5.8718 2.34615C6.36128 2.34663 6.83058 2.5413 7.17669 2.88741C7.52281 3.23353 7.71747 3.70282 7.71796 4.1923ZM2.1795 20.8077L5.87181 20.8077L5.8718 4.1923L2.1795 4.1923L2.1795 20.8077Z" fill="#CDCDCD"/>
    <path d="M24.3333 4.19252L24.3333 20.8079C24.3329 21.2974 24.1382 21.7667 23.7921 22.1128C23.446 22.4589 22.9767 22.6536 22.4872 22.6541L18.7949 22.6541C18.3054 22.6536 17.8361 22.4589 17.49 22.1128C17.1439 21.7667 16.9492 21.2972 16.9487 20.8077L16.9487 4.19232C16.9492 3.70284 17.1439 3.23375 17.49 2.88763C17.8361 2.54152 18.3054 2.34686 18.7949 2.34637L22.4872 2.34637C22.9767 2.34686 23.446 2.54152 23.7921 2.88763C24.1382 3.23375 24.3329 3.70304 24.3333 4.19252ZM18.7949 20.8077L22.4872 20.8079L22.4872 4.19252L18.7949 4.19232L18.7949 20.8077Z" fill="#CDCDCD"/>
</svg>
