<svg width="16" height="12" viewBox="0 0 16 12" fill="none" xmlns="http://www.w3.org/2000/svg">
<path d="M5.79911 9.15L14.2741 0.675C14.4741 0.475 14.7116 0.375 14.9866 0.375C15.2616 0.375 15.4991 0.475 15.6991 0.675C15.8991 0.875 15.9991 1.1125 15.9991 1.3875C15.9991 1.6625 15.8991 1.9 15.6991 2.1L6.49911 11.3C6.29911 11.5 6.06578 11.6 5.79911 11.6C5.53245 11.6 5.29911 11.5 5.09911 11.3L0.799113 7C0.599113 6.8 0.50328 6.5625 0.511613 6.2875C0.519946 6.0125 0.624113 5.775 0.824113 5.575C1.02411 5.375 1.26161 5.275 1.53661 5.275C1.81161 5.275 2.04911 5.375 2.24911 5.575L5.79911 9.15Z" fill="white"/>
</svg>
