<svg width="24" height="25" viewBox="0 0 24 25" fill="none" xmlns="http://www.w3.org/2000/svg">
<mask id="mask0_85008_13" style="mask-type:alpha" maskUnits="userSpaceOnUse" x="0" y="0" width="24" height="25">
<rect y="0.5" width="24" height="24" fill="#D9D9D9"/>
</mask>
<g mask="url(#mask0_85008_13)">
<path d="M12 19.7C10.88 19.7 9.81 19.875 8.79 20.225C7.77 20.575 6.84 21.1 6 21.8V22.1H18V21.8C17.16 21.1 16.23 20.575 15.21 20.225C14.19 19.875 13.12 19.7 12 19.7ZM3.6 20.72C4.68 19.66 5.935 18.825 7.365 18.215C8.795 17.605 10.34 17.3 12 17.3C13.66 17.3 15.205 17.605 16.635 18.215C18.065 18.825 19.32 19.66 20.4 20.72V5.3H3.6V20.72ZM12 14.9C10.84 14.9 9.85 14.49 9.03 13.67C8.21 12.85 7.8 11.86 7.8 10.7C7.8 9.54 8.21 8.55 9.03 7.73C9.85 6.91 10.84 6.5 12 6.5C13.16 6.5 14.15 6.91 14.97 7.73C15.79 8.55 16.2 9.54 16.2 10.7C16.2 11.86 15.79 12.85 14.97 13.67C14.15 14.49 13.16 14.9 12 14.9ZM12 12.5C12.5 12.5 12.925 12.325 13.275 11.975C13.625 11.625 13.8 11.2 13.8 10.7C13.8 10.2 13.625 9.775 13.275 9.425C12.925 9.075 12.5 8.9 12 8.9C11.5 8.9 11.075 9.075 10.725 9.425C10.375 9.775 10.2 10.2 10.2 10.7C10.2 11.2 10.375 11.625 10.725 11.975C11.075 12.325 11.5 12.5 12 12.5ZM3.6 24.5C2.94 24.5 2.375 24.265 1.905 23.795C1.435 23.325 1.2 22.76 1.2 22.1V5.3C1.2 4.64 1.435 4.075 1.905 3.605C2.375 3.135 2.94 2.9 3.6 2.9H4.8V1.7C4.8 1.03726 5.33726 0.5 6 0.5C6.66274 0.5 7.2 1.03726 7.2 1.7V2.9H16.8V1.7C16.8 1.03726 17.3373 0.5 18 0.5C18.6627 0.5 19.2 1.03726 19.2 1.7V2.9H20.4C21.06 2.9 21.625 3.135 22.095 3.605C22.565 4.075 22.8 4.64 22.8 5.3V22.1C22.8 22.76 22.565 23.325 22.095 23.795C21.625 24.265 21.06 24.5 20.4 24.5H3.6Z" fill="#CDCDCD"/>
</g>
</svg>
