<svg width="32" height="33" viewBox="0 0 32 33" fill="none" xmlns="http://www.w3.org/2000/svg">
<mask id="mask0_70853_4959" style="mask-type:alpha" maskUnits="userSpaceOnUse" x="0" y="0" width="32" height="33">
<rect y="0.96582" width="32" height="32" fill="#D9D9D9"/>
</mask>
<g mask="url(#mask0_70853_4959)">
<path d="M15.95 22.9658C16.3 22.9658 16.5958 22.845 16.8375 22.6033C17.0792 22.3617 17.2 22.0658 17.2 21.7158C17.2 21.3658 17.0792 21.07 16.8375 20.8283C16.5958 20.5867 16.3 20.4658 15.95 20.4658C15.6 20.4658 15.3042 20.5867 15.0625 20.8283C14.8208 21.07 14.7 21.3658 14.7 21.7158C14.7 22.0658 14.8208 22.3617 15.0625 22.6033C15.3042 22.845 15.6 22.9658 15.95 22.9658ZM16 26.9658C14.6167 26.9658 13.3167 26.7033 12.1 26.1783C10.8833 25.6533 9.825 24.9408 8.925 24.0408C8.025 23.1408 7.3125 22.0825 6.7875 20.8658C6.2625 19.6492 6 18.3492 6 16.9658C6 15.5825 6.2625 14.2825 6.7875 13.0658C7.3125 11.8492 8.025 10.7908 8.925 9.89082C9.825 8.99082 10.8833 8.27832 12.1 7.75332C13.3167 7.22832 14.6167 6.96582 16 6.96582C17.3833 6.96582 18.6833 7.22832 19.9 7.75332C21.1167 8.27832 22.175 8.99082 23.075 9.89082C23.975 10.7908 24.6875 11.8492 25.2125 13.0658C25.7375 14.2825 26 15.5825 26 16.9658C26 18.3492 25.7375 19.6492 25.2125 20.8658C24.6875 22.0825 23.975 23.1408 23.075 24.0408C22.175 24.9408 21.1167 25.6533 19.9 26.1783C18.6833 26.7033 17.3833 26.9658 16 26.9658ZM16 24.9658C18.2333 24.9658 20.125 24.1908 21.675 22.6408C23.225 21.0908 24 19.1992 24 16.9658C24 14.7325 23.225 12.8408 21.675 11.2908C20.125 9.74082 18.2333 8.96582 16 8.96582C13.7667 8.96582 11.875 9.74082 10.325 11.2908C8.775 12.8408 8 14.7325 8 16.9658C8 19.1992 8.775 21.0908 10.325 22.6408C11.875 24.1908 13.7667 24.9658 16 24.9658ZM16.1 12.6658C16.5167 12.6658 16.8792 12.7992 17.1875 13.0658C17.4958 13.3325 17.65 13.6658 17.65 14.0658C17.65 14.4325 17.5375 14.7575 17.3125 15.0408C17.0875 15.3242 16.8333 15.5908 16.55 15.8408C16.1667 16.1742 15.8292 16.5408 15.5375 16.9408C15.2458 17.3408 15.1 17.7908 15.1 18.2908C15.1 18.5242 15.1875 18.72 15.3625 18.8783C15.5375 19.0367 15.7417 19.1158 15.975 19.1158C16.225 19.1158 16.4375 19.0325 16.6125 18.8658C16.7875 18.6992 16.9 18.4908 16.95 18.2408C17.0167 17.8908 17.1667 17.5783 17.4 17.3033C17.6333 17.0283 17.8833 16.7658 18.15 16.5158C18.5333 16.1492 18.8625 15.7492 19.1375 15.3158C19.4125 14.8825 19.55 14.3992 19.55 13.8658C19.55 13.0158 19.2042 12.32 18.5125 11.7783C17.8208 11.2367 17.0167 10.9658 16.1 10.9658C15.4667 10.9658 14.8625 11.0992 14.2875 11.3658C13.7125 11.6325 13.275 12.0408 12.975 12.5908C12.8583 12.7908 12.8208 13.0033 12.8625 13.2283C12.9042 13.4533 13.0167 13.6242 13.2 13.7408C13.4333 13.8742 13.675 13.9158 13.925 13.8658C14.175 13.8158 14.3833 13.6742 14.55 13.4408C14.7333 13.1908 14.9625 12.9992 15.2375 12.8658C15.5125 12.7325 15.8 12.6658 16.1 12.6658Z" fill="#A8A8A8"/>
</g>
</svg>
