<svg width="101" height="122" viewBox="0 0 101 122" fill="none" xmlns="http://www.w3.org/2000/svg">
<g clip-path="url(#clip0_301_1264)">
<path d="M71.7067 0H49.5488V25.4923H71.7067V0Z" fill="white"/>
<path d="M49.5484 46.2251H71.7062V82.1779C71.8075 90.8292 69.3453 99.3153 64.6328 106.557C59.9796 113.594 50.9972 121.966 34.3788 121.966C16.2776 121.966 5.72704 113.406 0.0341797 108.715L14.0107 91.4743C19.5672 96.0112 24.9191 99.7435 34.464 99.7435C41.6909 99.7435 44.5714 96.7988 46.2588 94.2307C48.5528 90.6637 49.7393 86.4923 49.6677 82.2464L49.5484 46.2251Z" fill="white"/>
<path d="M38.2477 30.1318H16.0898V52.3884H38.2477V30.1318Z" fill="#29ABE2"/>
<path d="M83.3136 111.522C83.3136 116.265 80.9104 118.815 77.5526 118.815C74.1948 118.815 71.9961 115.785 71.9961 111.762C71.9961 107.739 74.263 104.554 77.7401 104.554C81.2172 104.554 83.3136 107.687 83.3136 111.522ZM74.5698 111.711C74.5698 114.57 75.7118 116.675 77.6719 116.675C79.632 116.675 80.7399 114.45 80.7399 111.539C80.7399 108.988 79.7172 106.592 77.6719 106.592C75.6266 106.592 74.5698 108.903 74.5698 111.711Z" fill="white"/>
<path d="M87.7112 104.76V118.593H85.2568V104.76H87.7112Z" fill="white"/>
<path d="M90.3701 118.593V104.76H93.0972L96.0289 110.461C96.7836 111.952 97.455 113.483 98.0401 115.049C97.8867 113.337 97.8186 111.368 97.8186 109.177V104.76H100.068V118.593H97.5288L94.5631 112.772C93.7779 111.243 93.078 109.671 92.4666 108.064C92.4666 109.776 92.5859 111.711 92.5859 114.09V118.576L90.3701 118.593Z" fill="white"/>
</g>
<defs>
<clipPath id="clip0_301_1264">
<rect width="100.034" height="121.966" fill="white" transform="translate(0.0341797)"/>
</clipPath>
</defs>
</svg>
