<svg width="25" height="25" viewBox="0 0 25 25" fill="none" xmlns="http://www.w3.org/2000/svg">
<mask id="mask0_69960_5144" style="mask-type:alpha" maskUnits="userSpaceOnUse" x="0" y="0" width="25" height="25">
<rect x="0.144531" y="0.80835" width="24" height="24" fill="#D9D9D9"/>
</mask>
<g mask="url(#mask0_69960_5144)">
<path d="M4.14453 20.8083C3.59453 20.8083 3.1237 20.6125 2.73203 20.2208C2.34036 19.8292 2.14453 19.3583 2.14453 18.8083V6.80835C2.14453 6.25835 2.34036 5.78752 2.73203 5.39585C3.1237 5.00418 3.59453 4.80835 4.14453 4.80835H20.1445C20.6945 4.80835 21.1654 5.00418 21.557 5.39585C21.9487 5.78752 22.1445 6.25835 22.1445 6.80835V18.8083C22.1445 19.3583 21.9487 19.8292 21.557 20.2208C21.1654 20.6125 20.6945 20.8083 20.1445 20.8083H4.14453ZM20.1445 8.80835L12.6695 13.4833C12.5862 13.5333 12.4987 13.5709 12.407 13.5958C12.3154 13.6208 12.2279 13.6333 12.1445 13.6333C12.0612 13.6333 11.9737 13.6208 11.882 13.5958C11.7904 13.5709 11.7029 13.5333 11.6195 13.4833L4.14453 8.80835V18.8083H20.1445V8.80835ZM12.1445 11.8083L20.1445 6.80835H4.14453L12.1445 11.8083ZM4.14453 9.05835V7.58335V7.60835V7.59585V9.05835Z" fill="#A8A8A8"/>
</g>
</svg>
