<svg width="21" height="8" viewBox="0 0 21 8" fill="none" xmlns="http://www.w3.org/2000/svg">
<path d="M19.7596 7.91717H1.95136C1.66071 7.91717 1.38197 7.80087 1.17645 7.59386C0.970928 7.38685 0.855469 7.10608 0.855469 6.81332C0.855469 6.52056 0.970928 6.23979 1.17645 6.03278C1.38197 5.82577 1.66071 5.70947 1.95136 5.70947H19.7596C20.0502 5.70947 20.329 5.82577 20.5345 6.03278C20.74 6.23979 20.8555 6.52056 20.8555 6.81332C20.8555 7.10608 20.74 7.38685 20.5345 7.59386C20.329 7.80087 20.0502 7.91717 19.7596 7.91717Z" fill="white"/>
<path d="M19.7596 2.67388H1.95136C1.66071 2.67388 1.38197 2.55759 1.17645 2.35057C0.970928 2.14356 0.855469 1.86279 0.855469 1.57004C0.855469 1.27728 0.970928 0.996508 1.17645 0.789496C1.38197 0.582485 1.66071 0.466187 1.95136 0.466187L19.7596 0.466187C20.0502 0.466187 20.329 0.582485 20.5345 0.789496C20.74 0.996508 20.8555 1.27728 20.8555 1.57004C20.8555 1.86279 20.74 2.14356 20.5345 2.35057C20.329 2.55759 20.0502 2.67388 19.7596 2.67388Z" fill="white"/>
</svg>
