<svg width="17" height="17" viewBox="0 0 17 17" fill="none" xmlns="http://www.w3.org/2000/svg">
<path d="M8.14453 8.80835C7.04453 8.80835 6.10286 8.41668 5.31953 7.63335C4.5362 6.85002 4.14453 5.90835 4.14453 4.80835C4.14453 3.70835 4.5362 2.76668 5.31953 1.98335C6.10286 1.20002 7.04453 0.80835 8.14453 0.80835C9.24453 0.80835 10.1862 1.20002 10.9695 1.98335C11.7529 2.76668 12.1445 3.70835 12.1445 4.80835C12.1445 5.90835 11.7529 6.85002 10.9695 7.63335C10.1862 8.41668 9.24453 8.80835 8.14453 8.80835ZM14.1445 16.8083H2.14453C1.59453 16.8083 1.1237 16.6125 0.732031 16.2208C0.340365 15.8292 0.144531 15.3583 0.144531 14.8083V14.0083C0.144531 13.4417 0.290365 12.9208 0.582031 12.4458C0.873698 11.9708 1.2612 11.6083 1.74453 11.3583C2.77786 10.8417 3.82786 10.4542 4.89453 10.1958C5.9612 9.93752 7.04453 9.80835 8.14453 9.80835C9.24453 9.80835 10.3279 9.93752 11.3945 10.1958C12.4612 10.4542 13.5112 10.8417 14.5445 11.3583C15.0279 11.6083 15.4154 11.9708 15.707 12.4458C15.9987 12.9208 16.1445 13.4417 16.1445 14.0083V14.8083C16.1445 15.3583 15.9487 15.8292 15.557 16.2208C15.1654 16.6125 14.6945 16.8083 14.1445 16.8083ZM2.14453 14.8083H14.1445V14.0083C14.1445 13.825 14.0987 13.6583 14.007 13.5083C13.9154 13.3583 13.7945 13.2417 13.6445 13.1583C12.7445 12.7084 11.8362 12.3709 10.9195 12.1459C10.0029 11.9208 9.07786 11.8083 8.14453 11.8083C7.2112 11.8083 6.2862 11.9208 5.36953 12.1459C4.45286 12.3709 3.54453 12.7084 2.64453 13.1583C2.49453 13.2417 2.3737 13.3583 2.28203 13.5083C2.19036 13.6583 2.14453 13.825 2.14453 14.0083V14.8083ZM8.14453 6.80835C8.69453 6.80835 9.16537 6.61252 9.55703 6.22085C9.9487 5.82918 10.1445 5.35835 10.1445 4.80835C10.1445 4.25835 9.9487 3.78752 9.55703 3.39585C9.16537 3.00418 8.69453 2.80835 8.14453 2.80835C7.59453 2.80835 7.1237 3.00418 6.73203 3.39585C6.34036 3.78752 6.14453 4.25835 6.14453 4.80835C6.14453 5.35835 6.34036 5.82918 6.73203 6.22085C7.1237 6.61252 7.59453 6.80835 8.14453 6.80835Z" fill="#A8A8A8"/>
</svg>
