<svg width="24" height="25" viewBox="0 0 24 25" fill="none" xmlns="http://www.w3.org/2000/svg">
<path d="M21 1.5H3C1.89543 1.5 1 2.39648 1 3.50105C1 3.52939 1 3.54928 1 3.55917V21.5592C1 22.6311 1.86998 23.5 2.94187 23.5C2.97009 23.5 2.98998 23.5 2.99999 23.5H21C21.01 23.5 21.0299 23.5 21.0581 23.5C22.13 23.5 23 22.6311 23 21.5592V3.55915C23 3.54925 23 3.52937 23 3.50104C23 2.39648 22.1046 1.5 21 1.5ZM14 21.5592H3V13.5591H14V21.5592ZM14 11.5591H3V3.55917L14 3.55915V11.5591ZM21 21.5592H16V3.55917H21V21.5592Z" fill="#CDCDCD"/>
</svg>
