<svg width="21" height="16" viewBox="0 0 21 16" fill="none" xmlns="http://www.w3.org/2000/svg">
<path d="M19.2597 15.4464C19.0251 15.4468 18.7965 15.3719 18.6077 15.2328L10.3556 9.14965L2.10356 15.2328C1.98771 15.3184 1.85613 15.3803 1.71633 15.4151C1.57652 15.4498 1.43124 15.4567 1.28877 15.4354C1.14631 15.414 1.00944 15.3648 0.885997 15.2906C0.762552 15.2164 0.654943 15.1186 0.569314 15.0029C0.483684 14.8871 0.421712 14.7556 0.386936 14.6159C0.352159 14.4762 0.345259 14.331 0.366629 14.1887C0.409788 13.9012 0.565479 13.6425 0.799451 13.4697L9.70356 6.89926C9.89226 6.75967 10.1208 6.68433 10.3556 6.68433C10.5904 6.68433 10.819 6.75967 11.0077 6.89926L19.9118 13.4697C20.0977 13.6067 20.2356 13.7988 20.3057 14.0186C20.3759 14.2385 20.3747 14.4749 20.3024 14.6941C20.2301 14.9133 20.0904 15.1041 19.9031 15.2391C19.7159 15.3742 19.4907 15.4468 19.2597 15.4464Z" fill="white"/>
<path d="M19.2597 9.69733C19.0251 9.69774 18.7965 9.62289 18.6077 9.48379L10.3556 3.40063L2.10356 9.48379C1.86959 9.6566 1.57651 9.72945 1.28878 9.68633C1.00105 9.6432 0.742254 9.48762 0.569318 9.25383C0.396382 9.02003 0.323475 8.72716 0.366634 8.43964C0.409793 8.15213 0.565483 7.89352 0.799455 7.72072L9.70356 1.15024C9.89226 1.01065 10.1208 0.935303 10.3556 0.935303C10.5904 0.935303 10.819 1.01065 11.0077 1.15024L19.9118 7.72072C20.0977 7.85763 20.2356 8.04974 20.3057 8.26962C20.3759 8.4895 20.3747 8.72591 20.3024 8.94509C20.2301 9.16427 20.0904 9.35503 19.9031 9.49012C19.7159 9.62521 19.4907 9.69773 19.2597 9.69733Z" fill="white"/>
</svg>
